<?xml version="1.0" standalone="no"?>
<!DOCTYPE svg PUBLIC "-//W3C//DTD SVG 20010904//EN"
 "http://www.w3.org/TR/2001/REC-SVG-20010904/DTD/svg10.dtd">
<svg version="1.0" xmlns="http://www.w3.org/2000/svg"
 width="659.000000pt" height="378.000000pt" viewBox="0 0 659.000000 378.000000"
 preserveAspectRatio="xMidYMid meet">

<g transform="translate(0.000000,378.000000) scale(0.100000,-0.100000)"
fill="#000000" stroke="none">
<path d="M1065 3121 c-76 -19 -177 -91 -285 -202 -48 -50 -94 -103 -101 -117
-8 -15 -33 -54 -56 -87 -24 -32 -43 -63 -43 -69 0 -5 -17 -44 -39 -85 -92
-181 -120 -410 -68 -564 57 -167 208 -296 347 -297 64 0 106 28 120 81 24 88
-8 144 -105 182 -54 21 -63 29 -90 77 -27 49 -30 64 -30 140 0 79 11 130 48
235 11 33 61 119 116 205 80 122 261 278 276 237 3 -7 6 -397 8 -867 l3 -855
27 -80 c16 -44 46 -105 68 -137 21 -31 39 -58 39 -61 0 -7 103 -106 154 -146
99 -79 294 -137 433 -128 75 5 184 30 208 46 6 4 32 16 58 25 48 18 197 128
197 146 0 5 16 21 36 36 l36 28 39 -46 c41 -48 179 -158 199 -158 6 0 29 -9
50 -20 55 -28 194 -60 261 -60 88 0 232 31 274 60 6 4 24 12 41 18 50 16 181
118 222 172 76 100 92 123 92 134 0 6 13 43 29 81 48 115 52 171 51 934 -1
387 1 706 4 708 7 7 102 -73 271 -229 22 -21 58 -52 79 -70 l39 -33 579 -3
c510 -2 581 -1 606 13 45 26 93 63 133 103 20 20 59 56 86 80 26 23 73 65 103
92 30 28 60 50 67 50 11 0 13 -196 13 -1013 l0 -1013 33 -31 c76 -72 135 -70
204 7 l22 25 1 1193 c0 1091 -1 1195 -16 1218 -32 48 -106 68 -169 44 -14 -5
-127 -101 -252 -212 -124 -112 -235 -209 -247 -218 -11 -8 -32 -27 -44 -42
l-24 -28 -501 0 -501 0 -30 30 c-17 16 -49 48 -72 70 -22 22 -44 40 -48 40 -4
0 -96 81 -206 180 -110 99 -211 182 -225 186 -34 8 -114 -2 -132 -18 -43 -35
-43 -34 -43 -977 0 -984 3 -936 -60 -1060 -38 -75 -99 -131 -190 -178 -73 -37
-78 -38 -180 -38 -101 0 -108 1 -181 38 -129 64 -227 192 -248 325 l-8 52 33
9 c48 13 179 107 223 160 76 91 101 179 68 238 -83 147 -350 235 -578 189
-121 -25 -217 -68 -266 -119 -83 -86 -93 -145 -39 -241 49 -87 170 -192 256
-222 35 -12 35 -13 34 -68 -3 -117 -108 -258 -243 -324 -73 -36 -80 -37 -181
-37 -102 0 -107 1 -180 38 -136 69 -216 178 -241 327 -5 30 -9 427 -9 882 l0
827 -24 54 c-27 61 -92 122 -145 137 -41 11 -141 12 -186 1z"/>
<path d="M1879 2657 c-41 -28 -79 -91 -79 -133 0 -102 69 -174 167 -174 63 0
113 33 143 95 28 57 23 104 -14 164 -46 72 -148 95 -217 48z"/>
<path d="M2778 2655 c-61 -41 -84 -106 -66 -188 8 -41 17 -54 56 -82 77 -57
165 -46 225 26 64 78 37 207 -54 255 -45 23 -118 18 -161 -11z"/>
<path d="M4174 1959 c-17 -5 -51 -26 -75 -47 -43 -38 -43 -39 -43 -108 -1 -56
3 -75 22 -101 33 -47 82 -73 135 -73 58 0 83 12 125 61 36 41 48 88 38 143 -8
44 -76 112 -124 126 -42 11 -37 11 -78 -1z"/>
<path d="M5080 1958 c-37 -10 -97 -58 -117 -92 -7 -12 -12 -45 -13 -74 0 -40
5 -56 20 -69 11 -10 20 -22 21 -28 0 -5 14 -21 31 -34 23 -19 44 -25 87 -27
31 -1 65 3 76 8 34 17 85 80 95 117 31 111 -88 230 -200 199z m90 -123 c0 -16
-6 -25 -15 -25 -8 0 -15 -4 -15 -10 0 -5 14 -10 30 -10 39 0 40 -24 3 -44 -33
-16 -66 -7 -82 23 -15 27 -14 35 10 65 28 35 69 36 69 1z"/>
<path d="M4639 1366 c-3 -3 -32 -6 -65 -7 -32 -1 -62 -6 -65 -11 -3 -5 -16
-11 -29 -13 -41 -8 -61 -37 -65 -95 -3 -58 20 -122 49 -133 8 -3 20 -18 28
-33 18 -38 102 -86 160 -92 130 -13 299 166 267 283 -14 50 -61 81 -134 89
-33 3 -78 9 -100 12 -22 3 -43 3 -46 0z"/>
</g>
</svg>
